<svg xmlns="http://www.w3.org/2000/svg" width="1024" height="1024" viewBox="0 0 1024 1024"><path d="M506.933 197.998c3.484-3.908 6.363-7.189 11.264-9.421 16.8-7.647 34.137.693 40.175 17.665 23.04 3.931 22.948 20.545 27.388 39.545a2867 2867 0 0 1 9.669 42.559c3.212 14.337 8.235 32.224 10.761 46.13-4.58 2.69-13.084 6.285-18.133 8.347a435 435 0 0 1-50.149 16.486c-6.517 1.752-13.061 3.102-19.595 4.883-12.784-4.304-22.377-9.625-32.794-18.359 1.51-6.825 3.034-14.327 5.149-20.96a666 666 0 0 0 44.814-11.423l-.844-1.157c-7.793 1.69-15.589 2.818-23.46 4.083-66.016 10.61-132.467 16.004-199.278 17.864-4.29.12-8.544.216-12.811-.348a25.3 25.3 0 0 1-10.127-3.627c-3.107-1.948-9.551-8.718-8.082-12.542 1-.139 1.96-.325 2.933-.594 2.207-4.628 3.773-11.565 5.977-16.884 2.174 3.958 4.147 7.894 6.221 11.896 1.303 2.513 3.272 6.582 6.48 5.229 2.258-2.686 7.011-17.759 8.769-22.327 2.067 4.141 8.752 20.333 11.212 21.59 3.256-1.058 8.677-17.591 10.245-21.57 3.183 6.575 6.873 15.229 10.219 21.36 2.795-7.189 6.068-17.23 9.327-23.81 1.851 3.642 8.52 18.625 10.97 19.935 3.193-.892 8.56-18.572 9.725-22.424 2.33 4.019 9.319 19.227 11.799 20.186 2.979-1.461 7.796-17.259 9.325-21.53 2.524 3.521 9.812 17.989 12.176 19.085 1.883-1.583 6.722-19.442 9.337-24.484 3.195 5.932 8.81 16.935 12.568 21.959 3.445-8.283 6.274-16.616 9.559-24.916 4.669 6.063 7.466 14.431 11.968 21.123 1.197-3.615 5.782-19.662 7.198-21.574l.901-.083c2.904 2.417 8.261 12.877 11.254 16.847 2.722-8.393 4.887-19.033 7.59-26.639 4.751 6.049 8.106 13.412 12.66 18.973 2.61-8.974 3.832-19.267 6.741-27.792 3.969 6.829 7.264 11.418 10.587 18.744 1.16-.84 2.941-2.04 3.996-2.912a171 171 0 0 1 7.124-21.67c2.75 3.151 5.113 6.713 7.226 10.32 10.104-10.659 14.25-17.159 21.093-29.721-23.062 11.323-40.671 16.191-65.562 21.223-1.391 3.858-2.657 7.855-4.046 11.645-2.665-3.056-4.056-5.829-5.804-9.489-3.28.621-8.272 1.419-11.357 2.274-1.243 4.277-2.716 9.944-4.408 13.943-3.106-3.646-5.507-7.871-8.01-11.964l-6.395 1.246c-1.385 4.201-2.299 7.978-3.348 12.256-3.096-3.46-5.681-6.741-8.105-10.727-2.645.288-5.555.548-8.165.918-1.44 4.859-2.668 9.163-4.603 13.847-2.657-3.841-4.632-7.75-6.817-11.861-2.378.128-5.293.204-7.61.508a307 307 0 0 1-4.293 14.871c-2.855-3.797-6.63-12.743-9.258-13.565-4.787 1.074-6.979 13.419-8.844 18.16-2.722-5.784-4.967-10.517-8.479-15.947-1.927.472-3.388.394-4.285 2.01-2.594 4.674-3.306 8.994-5.754 14.003-2.573-3.729-6.787-12.344-9.679-13.944-3.731.273-6.346 12.598-7.33 15.856l-.529-.537c-3.84-3.946-7.927-12.859-11.143-13.556-2.52 1.558-6.331 14.371-7.642 18.139l-.39-.605c-2.456-3.853-6.965-14.405-9.831-16.046-3.845.469-7.208 14.002-8.568 17.761-2.934-5.576-6.082-10.887-9.13-16.383-2.637-.158-5.516-.27-8.125-.521a1345 1345 0 0 1-7.928 20.212c-4.484-6.639-6.874-12.87-10.093-20.185-3.343-1.3-6.028-2.266-7.661-5.69-3.48-6.97 2.118-8.891 4.18-13.269 3.043-6.461 1.961-17.441 10.219-20.952 7.819-3.325 14.905 3.27 19.635 8.507 1.433-2.967 2.794-6.348 5.02-9.095 12.005-14.813 18.623 5.892 27.929 10.2 3.489 1.615 19.155-1.037 23.204-1.657a883 883 0 0 0 69.379-13.942c15.948-4.043 31.972-8.931 47.942-13.132.891-14.922 2.355-29.262 23.138-29.003 5.379.067 9.549 2.865 13.419 6.449"/><path fill="#979a9b" d="M534.638 312.293c.89-.191 4.571-1.13 5.099-.523-.215.67-3.599 1.485-4.255 1.68z"/><path fill="#fbfbfa" d="M527.235 205.079c1.615.103 3.279.23 4.766.918a9.47 9.47 0 0 1 4.856 5.295c.8 2.155.725 3.899-.279 5.982a9.33 9.33 0 0 1-5.565 4.903c-2.648.837-4.697.234-7.049-.923-.26-.26-1.947-1.641-1.659-2.06.604-.229 1.638.335 2.464-.02 5.569-2.392 2.462-11.295-3.5-8.146-2.443 1.291-2.455.224-1.07-1.855 1.706-2.561 4.195-3.356 7.036-4.094"/><path d="M476.513 558.056c23.859-.067 47.432-.501 71.338-.37.364 13.761-.515 45.567 7.888 55.437a13.65 13.65 0 0 0 6.974 4.396c5.728 1.531 25 .299 32.98.976 2.393 7.435 6.988 26.436 8.094 34.316-5.346.48-12.61 2.288-13.065 8.92-.868 12.634-.555 25.573-.563 38.269l.233 80.301c9.053.216 20.863-.434 29.554.392l.573.825c-.129 1.761-.338 1.906.203 3.507 2.169-.011 5.708-.73 7.78-1.35 28.168-8.422 58.272 5.862 71.84 31.428 3.61 6.802 5.008 13.432 5.848 21.368l-90.868-.018c-5.969-4.903-11.634-10.188-17.769-15.172l-.044 15.321-35.792-.116c.622-16.702-3.347-28.944 9.739-41.755.123-14.095.921-27.119.352-41.425-1.386-34.805-6.439-69.541-13.829-103.559-2.085-9.602-4.554-21.092-7.724-30.374-19.37 3.105-37.492 3.227-55.505-5.74l-.752.908c5.651 3.868 9.261 5.418 15.499 8.168-10.691 38.248-12.999 82.293-11.869 121.781.481 16.828 2.401 33.989 2.971 50.72 12.033 11.78 8.84 25.248 9.31 41.729q-17.952-.314-35.907-.251l-.01-14.995c-5.789 4.907-11.907 10.276-17.92 14.823l-92.766.091c1.407-18.813 11.801-34.526 27.279-44.893a73.6 73.6 0 0 1 47.235-11.922c5.225.514 12.133 2.027 17.381 3.057-.988-37.168-2.084-68.246 3.277-105.79a599 599 0 0 1 8.472-47.052c1.875-8.315 6.153-22.991 7.173-30.856 1.542-11.883 1.874-28.826 2.39-41.095"/><path fill="#dedddf" d="M488.259 610.166c2.092 1.058 4.527 2.24 6.491 3.467l-.752.908c-2.148-1.472-3.72-2.75-5.739-4.375"/><path fill="#fbfbfa" d="M404.937 792.121c1.983-.201 8.723-.79 8.871 1.925.624 11.418-20.21 25.455-28.436 28.329-8.705.578-12.281-3.228-7.628-11.628 4.999-9.025 17.321-16.042 27.193-18.626"/><path fill="#fbfbfa" d="M652.897 797.939c14.012 1.12 31.727 6.63 41.44 17.712 3.15 3.594 3.529 6.402 1.499 10.493-12.271 5.763-23.054-10.396-30.806-17.671-4.004-3.758-7.556-7.405-12.133-10.534"/><path d="M624.269 358.705c6.763 2.992 21.784 18.899 27.168 24.896 42.155 46.952 58.395 111.788 57.059 173.72-.175 8.121-.697 16.241-1.11 24.384-12.26-3.215-36.086-4.095-48.105.218q.535-4.463.94-8.94c3.484-40.01 1.376-93.377-25.657-125.637-1.715 11.75-1.462 32.617-1.309 44.904.128 17.33.618 34.656 1.468 51.965a2363 2363 0 0 1 1.853 38.286c.308 6.391 1.83 25.141.428 30.619-1.818 1.424-5.03 2.356-7.327 2.423-19.66.571-39.548-.281-59.237-.129-12.183.094-16.106-5.376-17.594-16.848-2.404-18.538-2.012-37.804-2.742-56.494-.433-11.657-.744-23.567-.628-35.233 2.097-27.418 39.211-61.795 59.146-79.171-3.716-5.169-7.047-9.656-11.037-14.611 7.675-4.015 17.547-9.776 25.185-12.952 2.781-15.804 2.434-25.611 1.499-41.4"/><path d="m613.379 335.274 1.136.018c1.017.054 2.369.754 2.85 1.738 6.516 13.335 5.074 47.117 2.621 60.856-4.785 2.705-23.074 12.156-27.322 13.728 3.541 5.291 7.559 10.735 11.206 16.097a224.1 224.1 0 0 0-52.135 60.01c2.362-32.433 15.444-69.519 28.675-98.944-10.481 8.211-24.179 16.921-36.926 20.533-4.021-5.508-8.235-11.959-12.118-17.63-2.72 5.845-6.118 18.198-9.687 22.937 2.009 12.291 3.355 27.83 4.741 40.38q3.33 30.397 7.289 60.718c-3.913 5.037-19.33 22.607-23.271 26.42-6.443-8.417-15.097-19.045-22.169-26.737 3.483-19.873 7.268-39.961 10.559-59.777 1.97-11.696 4.332-23.426 6.22-35.114 1.487-9.203-2.539-21.453-4.313-30.945-4.941 5.307-10.486 11.549-16.204 15.895l-3.773-8.445a2007 2007 0 0 1-4.673 85.188c-7.034-21.01-14.89-39.27-26.59-58.215 6.736-5.942 11.081-10.72 17.223-17.305a198 198 0 0 1-18.549-13.503c3.722-8.701 25.353-46.268 34.589-47.532l.909.568c.587 15.152-2.182 31.3-1.948 46.5.012.773 2.995 7.751 3.361 8.617 8.331-9.671 24.254-25.319 33.569-34.583 3.32 5.765 7.147 10.982 10.859 16.497l15.18 22.711c12.709-5.113 29.439-14.248 38.625-24.668 2.017-2.288 6.543-10.843 8.354-13.979 5.825-10.091 13.299-22.945 21.232-31.52z"/><path d="m600.783 715.21 73.47-.091c-.133 2.837-1.063 9.633 1.141 11.391 4.653.814 26.595 1.305 30.968.31 1.575-1.72 1.134-8.67 1.126-11.351l68.554-.06.045 52.376.048 10.797-175.58-.145z"/><path d="M444.714 395.211c4.48 2.466 12.692 9.075 16.954 12.354-5.519 4.684-10.608 10.381-15.491 15.731 2.543 5.207 6.102 10.632 8.619 15.932 8.419 17.735 19.893 40.389 21.106 60.229.267 4.37-.494 16.388-.67 20.995a3165 3165 0 0 1-1.425 36.182c-.712 15.47-.923 33.109-3.533 48.26-.797 4.625-3.546 9.521-6.833 12.898q-.562.418-1.135.818c-8.189 5.678-22.458 4.337-31.919 3.131-2.784-.355-6.584-1.952-7.958-4.488-.875-1.614-.953-5.868-.854-7.816.601-11.863 1.55-23.833 2.411-35.676a4033 4033 0 0 1 4.808-62.32c2.478-28.385 3.512-56.705 8.499-84.801 1.918-10.806 4.557-20.833 7.421-31.429"/><path fill="#fbfbfa" d="M451.874 557.827a7.09 7.09 0 1 1 4.44 13.465 7.09 7.09 0 0 1-4.44-13.465"/><path fill="#fbfbfa" d="M452.415 508.717a7.043 7.043 0 1 1 3.498 13.645 7.043 7.043 0 0 1-3.498-13.645"/><path d="m600.801 664.455 175.508-.055c-.514 12.514-.195 25.038-.271 37.558-.017 2.674.13 5.362-.172 8.023l-.906.373c-20.88-.582-41.758-.239-62.638-.463-2.716-.029-5.037-1.332-7.695-1.64-6.047-.703-25.396-1.187-30.25.842-4.787 2.001-63.311.895-73.548.801-.1-14.852-.449-30.671-.028-45.439"/><path d="M437.836 407.911c-.001 1.138-1.65 8.649-1.985 10.314a379 379 0 0 0-2.941 16.652c-2.9 18.586-5.494 45.073-5.495 64.044-20.005 25.734-58.545 44.779-89.988 51.368-1.997.418-7.681 2.056-9.211 1.094l.031-1.579c1.405-16.383.175-34.057-4.134-49.883a232 232 0 0 0 7.389-1.368c36.67-7.764 63.709-27.47 85.063-57.708 7.903-11.19 13.976-21.661 21.271-32.934"/><path d="M213.829 526.009c3.075-18.214 15.788-20.479 31.456-20.728-3.221 19.795 14.705 29.223 26.879 15.106 7.488 7.864 30.678 26.573 32.644 36.321.598 2.966.201 6.149-1.537 8.673-1.72 2.497-5.382 5.156-8.438 5.499-4.738.531-8.798-2.658-12.163-5.549l-.674.599c5.771 6.672 8.932 16.702-.464 21.864a13.73 13.73 0 0 1-10.959.916c-3.978-1.337-6.293-3.469-8.123-7.153l-.393-.004a81 81 0 0 1-3.244 3.848c-7.185 8.003-21.471-.99-20.419-10.64.112-1.03.202-1.178-.159-2.102-2.446 1.805-4.792 3.104-7.9 3.334a11.96 11.96 0 0 1-8.72-2.888c-4.725-4.147-5.203-11.292-2.265-16.588 1.162-2.094 3.508-4.318 5.202-6.062-3.725 2.706-5.46 4.496-10.386 4.705-6.617.281-12.337-4.648-12.017-11.445.383-8.138 6.225-12.638 11.68-17.706"/><path fill="#979a9b" d="M281.996 565.93c-.383-.416-1.665-1.562-1.616-2.212.389-.532 2.098 1.426 2.29 1.613z"/><path d="M665.581 588.559c7.22-.077 29.927.236 36.091 2.332 1.215 1.266.79 3.691.849 5.945 12.99 10.999 10.806 23.219 11.604 38.828.126 2.459-.563 8.315-2.809 9.835-4.327 2.926-7.128.985-11.195-.686-1.942 1.522-2.319 5.771-5.126 7.224-5.376 2.784-9.627-.457-12.264-5.179-14.63 17.927-32.276 2.202-24.7-19.831-2.636 4.03-4.153 10.698-6.326 11.876-1.399-.266-1.737-.408-3.172-.291-1.333 1.925-.97 16.888-.98 20.366-13.419-.009-36.595-.723-49.152.393-.769 11.972-.339 28.535-.33 40.879l.004 55.564c.004 3.847.368 19.787-.094 22.141-2.003 1.149-4.258 1.208-5.494-.97l-.033-76.035-.072-23.677c-.023-8.168-2.225-20.969 8.601-22.007 12.155-1.164 25.64-.585 37.951-.555-.152-6.167-.68-15.335.6-21.131 3.28-14.854 12.727-26.363 25.336-34.476q.438-5.267.711-10.545"/><path d="M821.902 543.515c.617 7.101-16.872 34.329-21.565 40.148-18.655 23.13-46.911 41.712-76.729 45.186-2.979-2.422-3.938-3.186-7.301-5.012-1.195-11.319-1.548-18.436-9.82-27.01l-.992-1.09c-.674-2.86.997-4.747 2.135-7.793 1.127-2.314 4.09-1.561 5.863-3.159 9.515-8.576 18.182-23.391 20.309-.326q5.662-.751 11.289-1.737c3.951-3.845 8.322-10.543 12.598-13.708 4.739-3.508 7.473 4.475 8.8 7.893 2.936-.875 6.008-2.153 8.884-3.266 2.587-5.008 5.544-11.222 9.343-15.274 2.854 2.182 4.631 4.315 7.032 6.973 3.326-2.135 6.158-3.7 8.849-6.76 2.727-3.1 4.435-8.582 7.743-10.893 2.865-2 3.246 1.657 5.427 1.982z"/><path d="M269.564 502.869c1.512 5.067 2.911 9.828.313 14.977a11.34 11.34 0 0 1-6.872 5.832c-2.923.879-6.074.57-8.771-.86-14.862-7.963-2.897-37.265 13.132-40.701a22.1 22.1 0 0 1 16.512 3.041c5.789 3.764 8.964 10.078 11.338 16.347.587-.52.84-.687 1.294-1.314 4.722.076 9.343 1.347 14.158 1.453 4.553 14.463 5.441 34.162 3.198 49.091-2.753.308-5.835.717-8.566.92-.407-1.198-1.228-3.508-2.056-4.376-8.288-8.688-20.836-21.635-29.721-29.206 3.671-7.409 4.344-10.676 3.018-18.891-.417 2.891-.569 5.738-2.055 8.197-2.291.748-2.906-1.354-4.046-3.15z"/><path fill="#dedddf" d="M295.216 501.505c.587-.52.84-.687 1.294-1.314.071.924.944 4.489.212 5.087-.635-.273-1.319-3.053-1.506-3.773"/><path d="M629.255 618.085c2.737-.289 7.831-.548 9.176-2.943 4.987-8.882-.964-30.003 1.247-38.757.224-.885 16.862-11.057 19.232-12.399-.76 8.421-1.61 17.263-1.989 25.708l6.044-.89c-.144 3.043-.251 5.987-.603 9.016-13.743 9.867-18.383 15.238-23.52 31.231-13.761-2.66-24.159-5.201-37.308-9.855-.59-.151-1.343-.223-1.607-.846.354-.604 26.947-.344 29.328-.265"/><path fill="#363437" d="M601.534 619.196c-.59-.151-1.343-.223-1.607-.846.354-.604 26.947-.344 29.328-.265-6.04 1.203-24.7-.515-27.721 1.111"/><path d="M716.564 625.62c10.243 4.679 7.53 19.536 7.422 29.069 8.103.031 43.188-1.612 47.79 1.793 1.145.848 1.379 1.361 1.604 2.73l-57.821-.313c-.157-11.922 1.14-22.023 1.005-33.279"/><path d="M252.057 487.65c.734.72.128 1.149-.448 1.989-2.58 3.76-4.354 8.475-5.42 12.892-7.065-.182-9.766-.475-16.702 1.302l-2.006.514c-1.652-1.243 5.925-7.558 7.151-8.56 5.333-4.355 10.74-6.721 17.425-8.137"/></svg>